<?xml version="1.0" encoding="UTF-8" standalone="no"?>
<!DOCTYPE svg PUBLIC "-//W3C//DTD SVG 1.1//EN" "http://www.w3.org/Graphics/SVG/1.1/DTD/svg11.dtd">
<svg width="100%" height="100%" viewBox="0 0 1080 1080" version="1.1" xmlns="http://www.w3.org/2000/svg" xmlns:xlink="http://www.w3.org/1999/xlink" xml:space="preserve" xmlns:serif="http://www.serif.com/" style="fill-rule:evenodd;clip-rule:evenodd;stroke-linecap:round;stroke-linejoin:round;stroke-miterlimit:1.5;">
    <path d="M228.308,312.384L274.338,601.116L277.476,616.393L258.646,640.869L248.184,658.653L240.862,678.53L239.815,691.083L239.815,702.591L243.171,714.646L252.011,729.523L260.801,735.8L274.338,744.436L282.707,748.62L296.307,751.759L916.662,755.943L916.662,686.899L383.135,688.991L371.628,681.668L367.443,671.207L370.582,660.745L379.997,654.469L917.708,574.963L917.708,292.507L344.429,311.337L296.307,247.523L288.984,244.761L173.544,244.73L165.246,252.774L163.103,259.945L161.681,270.508L163.844,281.67L171.238,288.394L182.075,296.143L195.827,301.201L211.57,304.015L228.308,312.384" style="fill:rgb(240,174,46);"/>
    <circle cx="449.41" cy="837.415" r="74.231" style="fill:rgb(240,174,46);"/>
    <circle cx="827.325" cy="838.723" r="74.231" style="fill:rgb(240,174,46);"/>
    <path d="M1012.495,48.35L1012.495,1031.65L67.505,1031.65L67.505,48.35L1012.495,48.35ZM964.607,102.623L115.393,102.623L115.393,980.57L964.607,980.57L964.607,102.623Z" style="fill:rgb(240,174,46);stroke:black;stroke-opacity:0;stroke-width:1px;"/>
</svg>
